<svg version="1.0" xmlns="http://www.w3.org/2000/svg" height="180.000000pt" viewBox="0 0 600.000000 600.000000" preserveAspectRatio="xMidYMid meet">
  <g transform="translate(0.000000,600.000000) scale(0.100000,-0.100000)"
  fill="#000000" stroke="none">
    <path d="M0 3000 l0 -3000 3000 0 3000 0 0 3000 0 3000 -3000 0 -3000 0 0
    -3000z m4678 1486 c113 -39 171 -75 258 -161 141 -139 212 -321 200 -510 -21
    -342 -283 -604 -622 -622 -323 -18 -596 185 -679 502 -19 76 -19 233 0 310 65
    253 259 443 510 501 89 20 241 11 333 -20z m-3072 -1091 c206 -64 372 -230
    440 -440 21 -63 27 -102 28 -185 1 -128 -12 -186 -71 -310 -82 -170 -244 -303
    -429 -350 -151 -39 -321 -22 -459 45 -247 120 -387 361 -372 640 22 438 442
    730 863 600z m1754 -1 c350 -110 546 -480 440 -829 -69 -225 -268 -410 -496
    -460 -102 -23 -261 -17 -354 15 -396 133 -574 589 -377 965 42 80 173 211 257
    257 159 88 356 107 530 52z"/>
  </g>
</svg>
