<svg version="1.0" xmlns="http://www.w3.org/2000/svg" height="180.000000pt" viewBox="0 0 800.000000 800.000000" preserveAspectRatio="xMidYMid meet">
  <g transform="translate(0.000000,800.000000) scale(0.100000,-0.100000)"
  fill="#000000" stroke="none">
    <path d="M5725 5424 c-38 -8 -112 -36 -164 -61 -77 -37 -108 -59 -170 -122
    -89 -90 -132 -158 -174 -278 -28 -81 -31 -98 -31 -213 1 -108 4 -136 27 -205
    69 -211 221 -367 426 -438 70 -25 107 -31 196 -35 135 -5 214 12 335 70 68 33
    101 57 170 127 137 137 200 287 200 476 0 198 -61 347 -200 486 -94 95 -173
    144 -285 179 -94 28 -238 35 -330 14z"/>
    <path d="M1698 4224 c-70 -16 -196 -79 -263 -131 -111 -86 -209 -248 -239
    -397 -63 -311 83 -613 367 -757 99 -51 188 -71 307 -72 116 0 197 19 310 75
    68 33 102 58 171 127 134 134 195 266 206 446 21 329 -197 625 -522 710 -74
    19 -258 19 -337 -1z"/>
    <path d="M3870 4224 c-194 -52 -352 -180 -440 -354 -55 -110 -73 -186 -74
    -310 -1 -127 13 -186 70 -309 38 -80 56 -106 132 -181 70 -70 104 -95 172
    -128 112 -55 194 -75 310 -75 116 0 206 21 302 69 242 121 388 354 388 619 0
    212 -103 426 -263 544 -74 54 -185 109 -259 126 -81 19 -265 18 -338 -1z"/>
  </g>
</svg>
